<svg version="1.2" xmlns="http://www.w3.org/2000/svg" viewBox="0 0 530 1206" width="530" height="1206"><style>.a{fill:#fff}.b{fill:none;stroke:#fff;stroke-linecap:square;stroke-miterlimit:100;stroke-width:60}</style><path class="a" d="m210.1 590.8c-21-0.9-94-51-99.6-122.8-7.6-98.8 144.3-130.4 146.3-190.7 2-60.3-41.2-75.5-53.7-151.2-12.5-75.8 87-121.2 87.5-121.1-65.2 100.2 121.7 131.1 125.4 250 5 160.5-314.7 159.7-205.9 335.8z"/><path class="a" d="m305.5 480.9c77.6-55.9 105-44 114.4-153.6 23.1 1.7 48.9 52.4 39.3 104.2-9.7 51.7-42.1 67-89.7 85.4-37.2 14.4-70 38-66 74-46.5-34.2-43.3-77.4 2-110z"/><path class="b" d="m217 757.4v-90.4h-75.8c-64.6 0-114.3 68.2-105.1 144.5l45.5 253.1c7.5 62.4 52.2 108.7 105.1 108.7h30.3v-175.6"/><path class="b" d="m313.1 1173.3l4.4-505.2 72.5-1.2c61.8-1.1 108.6 66.2 99.2 142.4l-44.7 253.5c-7.6 62.3-50.9 109.3-101.4 110.2z"/></svg>